<?xml version="1.0" encoding="utf-8"?>
<!-- Generator: Adobe Illustrator 16.0.0, SVG Export Plug-In . SVG Version: 6.00 Build 0)  -->
<!DOCTYPE svg PUBLIC "-//W3C//DTD SVG 1.1//EN" "http://www.w3.org/Graphics/SVG/1.1/DTD/svg11.dtd">
<svg version="1.1" xmlns="http://www.w3.org/2000/svg" xmlns:xlink="http://www.w3.org/1999/xlink" x="0px" y="0px" width="400px"
	 height="100px" viewBox="0 0 400 100" enable-background="new 0 0 400 100" xml:space="preserve">
<g id="Capa_2">
</g>
<g id="Capa_1">
	<g id="F">
		<g>
			<path fill="#616975" d="M54.872,5.957H40.599L17.706,65.58c3.043,10.308,8.108,18.442,8.108,18.442l6.037-15.449h32.944
				l9.72,25.782h14.11l1.646-2.302L54.872,5.957z M36.046,55.682l11.664-32.229l12.176,32.229H36.046z"/>
			<path fill="#616975" d="M99.684,7.536l1.74-1.886h48.599c0,0,1.305-0.69,7.06,12.968v0.844h-42.358l-0.153,22.714h38.214
				l1.727,1.573l-0.077,10.531l-1.189,1.401h-38.828l-0.18,37.42l-1.202,1.254h-11.817l-1.407-1.266L99.8,7.492"/>
		</g>
	</g>
	<rect x="157.082" y="56.156" fill="none" width="229" height="43.844"/>
	<text transform="matrix(1 0 0 1 157.082 88.748)" fill="#616975" font-family="'Rockwell-Light'" font-size="48">developer</text>
</g>
</svg>
